<?xml version="1.0" encoding="UTF-8"?>
<svg xmlns="http://www.w3.org/2000/svg" xmlns:xlink="http://www.w3.org/1999/xlink" width="44px" height="48px" viewBox="0 0 44 47" version="1.1">
<g id="surface1">
<path style=" stroke:none;fill-rule:nonzero;fill:rgb(0%,0%,0%);fill-opacity:1;" d="M 15.136719 30.460938 C 14.601562 30.460938 14.171875 29.953125 14.171875 29.328125 C 14.171875 28.707031 14.605469 28.199219 15.136719 28.199219 L 20.425781 28.199219 C 20.960938 28.199219 21.394531 28.707031 21.394531 29.328125 C 21.394531 29.953125 20.957031 30.460938 20.425781 30.460938 Z M 33.238281 25.773438 C 36.210938 25.773438 38.902344 26.953125 40.847656 28.867188 C 42.796875 30.777344 44 33.417969 44 36.332031 C 44 39.25 42.796875 41.890625 40.847656 43.800781 C 38.902344 45.710938 36.210938 46.890625 33.238281 46.890625 C 30.265625 46.890625 27.578125 45.710938 25.628906 43.800781 C 23.683594 41.890625 22.480469 39.25 22.480469 36.332031 C 22.480469 33.417969 23.683594 30.777344 25.628906 28.867188 C 27.578125 26.953125 30.265625 25.773438 33.238281 25.773438 Z M 32.417969 31.394531 C 32.417969 30.871094 32.847656 30.449219 33.378906 30.449219 C 33.910156 30.449219 34.339844 30.871094 34.339844 31.394531 L 34.339844 36.3125 L 38.089844 38.492188 C 38.546875 38.753906 38.699219 39.332031 38.425781 39.78125 C 38.160156 40.230469 37.570312 40.378906 37.113281 40.113281 L 32.941406 37.6875 C 32.628906 37.53125 32.417969 37.214844 32.417969 36.847656 Z M 39.492188 30.203125 C 37.890625 28.632812 35.679688 27.664062 33.238281 27.664062 C 30.800781 27.664062 28.585938 28.632812 26.988281 30.203125 C 25.390625 31.769531 24.398438 33.941406 24.398438 36.335938 C 24.398438 38.730469 25.390625 40.902344 26.988281 42.472656 C 28.585938 44.039062 30.800781 45.011719 33.238281 45.011719 C 35.679688 45.011719 37.890625 44.039062 39.492188 42.472656 C 41.089844 40.902344 42.078125 38.730469 42.078125 36.335938 C 42.078125 33.941406 41.089844 31.769531 39.492188 30.203125 Z M 17.113281 41.96875 C 17.75 41.96875 18.265625 42.476562 18.265625 43.101562 C 18.265625 43.722656 17.75 44.230469 17.113281 44.230469 L 2.683594 44.230469 C 1.949219 44.230469 1.277344 43.933594 0.789062 43.457031 C 0.300781 42.980469 0 42.324219 0 41.597656 L 0 2.738281 C 0 2.011719 0.300781 1.355469 0.789062 0.875 C 1.273438 0.402344 1.945312 0.105469 2.683594 0.105469 L 35.628906 0.105469 C 36.367188 0.105469 37.039062 0.402344 37.527344 0.875 C 38.011719 1.351562 38.316406 2.011719 38.316406 2.738281 L 38.316406 20.742188 C 38.316406 21.367188 37.800781 21.875 37.164062 21.875 C 36.527344 21.875 36.011719 21.367188 36.011719 20.742188 L 36.011719 2.738281 C 36.011719 2.640625 35.96875 2.546875 35.898438 2.480469 C 35.828125 2.410156 35.734375 2.371094 35.632812 2.371094 L 2.683594 2.371094 C 2.585938 2.371094 2.488281 2.410156 2.421875 2.480469 C 2.347656 2.542969 2.304688 2.636719 2.304688 2.738281 L 2.304688 41.597656 C 2.304688 41.699219 2.347656 41.792969 2.417969 41.859375 C 2.488281 41.925781 2.582031 41.96875 2.679688 41.96875 Z M 7.417969 27.707031 L 10.308594 27.707031 C 10.519531 27.707031 10.691406 27.875 10.691406 28.082031 L 10.691406 30.917969 C 10.691406 31.125 10.519531 31.292969 10.308594 31.292969 L 7.417969 31.292969 C 7.210938 31.292969 7.039062 31.125 7.039062 30.917969 L 7.039062 28.082031 C 7.042969 27.871094 7.214844 27.707031 7.417969 27.707031 Z M 7.417969 8.285156 L 10.308594 8.285156 C 10.519531 8.285156 10.691406 8.453125 10.691406 8.660156 L 10.691406 11.496094 C 10.691406 11.703125 10.519531 11.871094 10.308594 11.871094 L 7.417969 11.871094 C 7.210938 11.871094 7.039062 11.703125 7.039062 11.496094 L 7.039062 8.660156 C 7.042969 8.453125 7.214844 8.285156 7.417969 8.285156 Z M 15.136719 11.039062 C 14.601562 11.039062 14.171875 10.535156 14.171875 9.910156 C 14.171875 9.285156 14.605469 8.777344 15.136719 8.777344 L 28.898438 8.777344 C 29.433594 8.777344 29.863281 9.285156 29.863281 9.910156 C 29.863281 10.535156 29.429688 11.039062 28.898438 11.039062 Z M 8.601562 21.480469 C 8.355469 21.675781 7.996094 21.625 7.746094 21.386719 C 7.71875 21.367188 7.691406 21.34375 7.664062 21.316406 L 6.453125 20.09375 C 6.199219 19.832031 6.257812 19.402344 6.585938 19.128906 C 6.910156 18.855469 7.378906 18.839844 7.636719 19.097656 L 8.296875 19.765625 L 10.417969 18.089844 C 10.703125 17.863281 11.136719 17.964844 11.386719 18.304688 C 11.632812 18.648438 11.601562 19.109375 11.320312 19.335938 Z M 14.5 20.535156 C 13.964844 20.535156 13.535156 20.027344 13.535156 19.402344 C 13.535156 18.777344 13.96875 18.273438 14.5 18.273438 L 28.261719 18.273438 C 28.796875 18.273438 29.226562 18.777344 29.226562 19.402344 C 29.226562 20.027344 28.792969 20.535156 28.261719 20.535156 Z M 14.5 20.535156 "/>
</g>
</svg>
